<?xml version="1.0" encoding="UTF-8" standalone="no"?>
<svg version="1.1" id="svg2" xml:space="preserve" width="258.66666" height="258.66666" viewBox="0 0 258.66666 258.66666">
    <defs id="defs6" />
    <g id="g10" transform="matrix(1.3333333,0,0,-1.3333333,0,258.66667)">
        <g id="g12" transform="scale(0.1)">
            <path d="M 131.336,1408.65 V 1207.87 H 30.9453 V 1067.33 H 131.336 V 609.551 588.469 c 0,-88.34 67.258,-130.508 210.816,-130.508 33.129,0 55.215,0 108.418,3.016 v 147.57 c -28.105,-3.008 -40.152,-3.008 -57.218,-3.008 -46.18,0 -65.254,14.051 -65.254,50.191 v 411.6 H 450.57 v 140.54 H 328.098 v 200.78 H 131.336" style="fill:currentColor;fill-opacity:1;fill-rule:evenodd;stroke:none" id="path16" />
            <path d="M 546.945,1192.81 V 683.84 c 0,-40.156 15.059,-101.395 36.141,-140.547 38.148,-71.277 115.449,-111.434 213.828,-111.434 105.41,0 182.711,41.164 229.896,126.493 V 450.934 h 189.73 V 1192.81 H 1019.78 V 748.09 735.039 c 0,-77.301 -70.272,-139.543 -154.6,-139.543 -79.305,0 -121.473,49.192 -121.473,137.535 V 1192.81 H 546.945" style="fill:currentColor;fill-opacity:1;fill-rule:evenodd;stroke:none" id="path18" />
            <path d="m 1901.81,969.949 -48.8,48.801 h -546.12 v -97.602 h 546.12 l 48.8,48.801 -48.8,-48.801 h 48.8 v 48.801" style="fill:currentColor;fill-opacity:1;fill-rule:evenodd;stroke:none" id="path20" />
            <path d="m 1203.49,1570.67 v 0 l 31.2,-0.65 30.56,-2.33 30.07,-3.94 29.54,-5.15 29.17,-6.69 28.37,-8.18 27.92,-9.46 27.41,-10.68 26.49,-12.07 25.92,-13.22 25.29,-14.5 24.25,-15.76 23.55,-16.59 22.62,-17.96 21.85,-18.9 20.82,-19.8 19.97,-21.04 18.87,-21.66 17.74,-22.83 16.75,-23.56 15.73,-24.26 14.29,-25.3 13.37,-25.71 12.03,-26.67 10.66,-27.2 9.43,-27.88 8.16,-28.53 6.66,-29.12 5.14,-29.49 3.92,-30 2.32,-30.49 0.65,-31.101 h 97.6 l -1.03,35.681 -2.7,35.44 -4.31,34.97 -6.27,34.44 -7.81,33.7 -9.31,33.09 -10.96,32.46 -12.56,31.78 -13.94,30.86 -15.28,30.29 -16.95,29.1 -18.01,28.45 -19.43,27.38 -20.79,26.26 -21.92,25.48 -23.01,24.08 -24.26,23.24 -25.27,21.94 -26.44,20.63 -27.36,19.65 -28.45,18.04 -29.1,16.8 -30.11,15.5 -31.07,13.97 -31.61,12.59 -32.48,10.98 -33.33,9.34 -33.74,7.83 -34.5,6.28 -35.03,4.33 -35.51,2.7 -35.78,1.04 v 0 -97.6" style="fill:currentColor;fill-opacity:1;fill-rule:evenodd;stroke:none" id="path22" />
            <path d="m 704.461,1304.25 0.941,1.45 16.782,23.56 17.765,22.83 18.903,21.66 19.988,20.85 20.851,19.99 21.661,18.9 22.832,17.77 23.562,16.78 24.254,15.76 25.297,14.5 25.906,13.22 26.477,12.07 27.39,10.68 27.89,9.46 28.33,8.18 29.12,6.69 29.49,5.15 30,3.94 30.49,2.33 31.1,0.65 v 97.6 l -35.68,-1.04 -35.44,-2.7 -34.96,-4.33 -34.45,-6.28 -33.69,-7.83 -33.29,-9.34 -32.457,-10.98 -31.589,-12.59 -31.051,-13.97 -30.098,-15.5 -29.105,-16.8 -28.453,-18.04 -27.372,-19.46 -26.261,-20.82 -25.481,-21.94 -24.277,-23.04 -23.043,-24.28 -21.945,-25.48 -20.817,-26.26 -19.457,-27.38 -18.047,-28.45 -15.875,-27.51 h 113.809" style="fill:currentColor;fill-opacity:1;fill-rule:evenodd;stroke:none" id="path24" />
            <path d="m 1203.49,368.227 v 0 l -31.1,0.656 -30.49,2.32 -30,3.942 -29.49,5.152 -29.12,6.687 -28.33,8.188 -11.2,3.801 V 297.168 l 15.51,-4.352 33.69,-7.836 34.45,-6.285 34.96,-4.332 35.44,-2.703 35.68,-1.035 v 0 97.602" style="fill:currentColor;fill-opacity:1;fill-rule:evenodd;stroke:none" id="path26" />
            <path d="m 1804.21,969.949 -0.65,-31.199 -1.36,-17.992 h 97.56 l 1.02,13.414 1.03,35.777 z m -17.76,-146.57 -0.93,-4.031 -8.16,-28.594 -9.43,-27.938 -10.66,-27.257 -12.03,-26.723 -13.37,-25.953 -14.29,-25.145 -15.73,-24.293 -16.75,-23.601 -17.74,-22.856 -18.87,-21.886 -19.97,-20.879 -20.82,-19.817 -21.85,-18.922 -22.62,-17.968 -23.55,-16.606 -24.44,-15.781 -25.1,-14.512 -25.92,-13.219 -26.49,-12.07 -27.41,-10.695 -27.92,-9.461 -28.37,-8.188 -29.17,-6.687 -29.54,-5.152 -30.07,-3.942 -30.56,-2.32 -31.2,-0.656 v -97.602 l 35.78,1.035 35.51,2.703 35.03,4.332 34.5,6.285 33.74,7.836 33.33,9.336 32.48,10.985 31.61,12.597 31.07,13.977 30.11,15.504 29.3,16.805 28.25,18.062 27.36,19.656 26.44,20.645 25.27,21.965 24.26,23.254 23.01,24.308 21.92,25.32 20.79,26.286 19.43,27.41 18.01,28.492 16.95,29.336 15.28,30.144 13.94,30.918 12.56,31.829 10.96,32.519 9.31,33.16 6.49,28.055 h -99.73" style="fill:currentColor;fill-opacity:1;fill-rule:evenodd;stroke:none" id="path28" />
        </g>
    </g>
</svg>
