<svg xmlns="http://www.w3.org/2000/svg" width="1024" height="409" version="1.1">
  <path xmlns="http://www.w3.org/2000/svg" fill="currentColor" d="M178.9 94.1v264.1H96.5V94.1H0V25.5h275.4v68.6h-96.5zM589.6 287.5c-6.9 16.4-16.8 30.5-29.7 42.3-12.9 11.8-28.4 20.9-46.5 27.5-18.2 6.6-38.3 9.9-60.5 9.9-22.5 0-42.8-3.3-60.8-9.9-18-6.6-33.3-15.7-45.8-27.5-12.5-11.7-22.2-25.8-28.9-42.3-6.8-16.5-10.1-34.7-10.1-54.8V25.5h82v200.7c0 9.1 1.2 17.7 3.6 25.8 2.4 8.2 6.1 15.4 11.1 21.9 5 6.4 11.6 11.5 19.8 15.3 8.2 3.8 18.1 5.6 29.7 5.6s21.5-1.9 29.7-5.6c8.2-3.8 14.9-8.8 20-15.3 5.1-6.4 8.8-13.7 11.1-21.9 2.2-8.1 3.4-16.8 3.4-25.8V25.5H600v207.3c0 20-3.5 38.3-10.4 54.7zM651 409.5L818.2-.1h-59.7L591.3 409.5zM899.4 118c-68.8 0-124.6 55.8-124.6 124.6s55.8 124.6 124.6 124.6c44.2 0 89.3-19.3 113.6-54.1l-56.5-23c-15 16.7-35.7 23.3-57.1 23.3-31.7 0-58.5-20.8-67.5-49.5h190.2c1.2-6.9 1.8-13.9 1.8-21.1.1-69-55.7-124.8-124.5-124.8zm0 53.9c29.5 0 54.8 18.1 65.4 43.9H834c10.6-25.8 35.9-43.9 65.4-43.9z" class="st0"/>
</svg>